PathFileType	4	(X/Y/Z)	Kaydara	
DataRate	CameraRate	NumFrames	NumMarkers	Units	OrigDataRate	OrigDataStartFrame	OrigNumFrames	
60.00	60.00	4	74	mm	60.00	677	200	
Frame#	Time	Z_lasi			Z_rasi			Z_rpsi			Z_lpsi			Z_fneck			Z_bneck			Z_fhead			Z_rhead			Z_lhead			Z_rshld			Z_relbtop			Z_relbext			Z_relblow			Z_rwrext			Z_rwrtop			Z_rwrlow			Z_lshld			Z_lelbext			Z_lelblow			Z_lelbtop			Z_lwrext			Z_lwrtop			Z_lwrlow			Z_rtopleg			Z_ltopleg			Z_rkneefr			Z_rkneebk			Z_rkneeis			Z_lkneefr			Z_lknssbk			Z_lkneeis			Z_rankfr			Z_rankis			Z_rankbk			Z_lankfr			Z_lankbk			Z_lankis			A_lasi			A_rasi			A_rpsi			A_lpsi			A_fneck			A_bneck			A_fhead			A_rhead			A_lhead			A_rshld			A_relbtop			A_relbext			A_relblow			A_rwrext			A_rwrtop			A_rwrlow			A_lshld			A_lelbext			A_lelblow			A_lelbtop			A_lwrext			A_lwrtop			A_lwrlow			A_rtopleg			A_ltopleg			A_rkneefr			A_rkneebk			A_rkneeis			A_lkneefr			A_lknssbk			A_lkneeis			A_rankfr			A_rankis			A_rankbk			A_lankfr			A_lankbk			A_lankis			
		X1	Y1	Z1	X2	Y2	Z2	X3	Y3	Z3	X4	Y4	Z4	X5	Y5	Z5	X6	Y6	Z6	X7	Y7	Z7	X8	Y8	Z8	X9	Y9	Z9	X10	Y10	Z10	X11	Y11	Z11	X12	Y12	Z12	X13	Y13	Z13	X14	Y14	Z14	X15	Y15	Z15	X16	Y16	Z16	X17	Y17	Z17	X18	Y18	Z18	X19	Y19	Z19	X20	Y20	Z20	X21	Y21	Z21	X22	Y22	Z22	X23	Y23	Z23	X24	Y24	Z24	X25	Y25	Z25	X26	Y26	Z26	X27	Y27	Z27	X28	Y28	Z28	X29	Y29	Z29	X30	Y30	Z30	X31	Y31	Z31	X32	Y32	Z32	X33	Y33	Z33	X34	Y34	Z34	X35	Y35	Z35	X36	Y36	Z36	X37	Y37	Z37	X38	Y38	Z38	X39	Y39	Z39	X40	Y40	Z40	X41	Y41	Z41	X42	Y42	Z42	X43	Y43	Z43	X44	Y44	Z44	X45	Y45	Z45	X46	Y46	Z46	X47	Y47	Z47	X48	Y48	Z48	X49	Y49	Z49	X50	Y50	Z50	X51	Y51	Z51	X52	Y52	Z52	X53	Y53	Z53	X54	Y54	Z54	X55	Y55	Z55	X56	Y56	Z56	X57	Y57	Z57	X58	Y58	Z58	X59	Y59	Z59	X60	Y60	Z60	X61	Y61	Z61	X62	Y62	Z62	X63	Y63	Z63	X64	Y64	Z64	X65	Y65	Z65	X66	Y66	Z66	X67	Y67	Z67	X68	Y68	Z68	X69	Y69	Z69	X70	Y70	Z70	X71	Y71	Z71	X72	Y72	Z72	X73	Y73	Z73	X74	Y74	Z74	

176	11.267	-204.32184	1080.41641	578.60455	-252.38512	1080.94566	375.82256	-81.51878	1106.88637	296.99041	-18.97153	1100.09018	534.03797	-240.05051	1423.60626	432.50107	-138.03741	1509.66583	423.23559	-366.47274	1601.24847	378.50624	-213.51328	1613.58215	309.38778	-219.15861	1642.11212	454.44149	-183.99042	1406.98166	227.84019	-125.51802	1090.56702	150.21608	-111.40245	1071.19492	207.23974	-197.77931	1099.10294	173.55885	-214.72942	862.02332	122.78696	-253.98666	874.19479	142.83193	-241.13224	868.16307	183.61372	-136.33403	1457.56027	617.33990	-85.03263	1141.64230	651.36047	-144.23144	1171.00540	712.55798	-75.56773	1167.53250	717.66884	-237.82917	927.58316	725.26451	-222.76861	922.43996	769.89861	-178.72431	910.74890	757.86827	-137.71022	920.28091	257.75013	-118.39729	896.16631	625.84919	-226.59222	422.17270	353.59303	-159.05115	443.37151	296.53772	-158.73896	435.17387	423.03658	-224.63461	455.01877	648.02132	-119.76628	481.60149	637.53685	-209.54821	448.72734	555.67463	-191.23690	177.47999	354.66282	-164.58956	178.44791	415.86445	-114.16139	166.65398	345.40489	-120.28962	178.46146	657.89169	-62.23615	186.98118	604.85352	-139.32999	182.54452	587.09015	-989.37782	1040.64514	471.66168	-982.79190	1046.13319	631.46301	-1139.11766	1030.52467	650.04463	-1112.21603	1037.60727	467.21230	-1069.69589	1373.55270	568.26439	-1206.37100	1409.96307	558.24013	-1005.25764	1580.72144	572.69440	-1150.07584	1553.45093	661.40663	-1155.40695	1553.54462	498.60950	-1151.60866	1357.28378	740.80460	-1102.35634	1065.60532	781.08078	-1164.40346	1052.85324	765.36667	-1104.45175	1055.01236	723.44460	-1049.35448	822.60223	798.99513	-1009.22012	839.66293	784.48647	-1023.78891	838.20236	745.57541	-1094.16832	1365.69977	389.90795	-1115.39429	1048.75412	378.26271	-1045.44518	1062.01721	387.30873	-1079.47083	1056.62575	345.25204	-997.94891	841.08887	384.40876	-1014.71603	837.06184	344.71169	-971.30066	850.73776	339.85817	-1071.95595	875.14053	732.33322	-1033.10730	889.03709	395.65208	-1020.39665	453.23807	641.32538	-1128.28697	485.49271	684.74869	-1107.61856	486.14594	567.08069	-1002.46490	465.56484	512.61486	-1085.79758	478.43449	416.65371	-1108.95035	478.28018	540.79304	-1097.10487	164.92346	662.44034	-1130.41809	162.52150	596.55079	-1178.32253	154.50665	665.55733	-1064.14551	163.92729	458.70781	-1125.06210	168.04388	422.78599	-1123.90343	172.62655	511.72894 
177	11.283	-204.58471	1080.01389	580.86632	-252.80199	1080.92964	378.30952	-81.72165	1107.45720	300.05116	-18.80733	1100.14336	536.66382	-238.80777	1424.19724	437.01645	-136.61180	1509.76196	425.95753	-365.06943	1604.16458	390.05398	-215.65083	1613.85834	312.95788	-213.40485	1642.55753	458.21342	-183.61425	1408.16055	230.87296	-124.21947	1091.98959	152.18572	-110.15472	1072.51785	209.24519	-196.45227	1100.35034	175.54605	-212.90415	863.17726	124.55166	-252.51287	875.55740	143.47269	-239.96368	869.52339	185.15116	-134.92756	1457.20993	620.43728	-81.77269	1141.46980	652.24831	-141.16639	1170.02342	713.56255	-72.20794	1166.77315	718.60947	-235.61913	927.32246	722.50092	-221.04450	921.47278	767.27264	-176.94706	909.76616	755.54382	-136.96940	920.70854	260.02821	-117.73392	895.96565	628.11996	-226.12228	422.34650	354.07677	-158.27579	443.64208	297.41493	-157.48279	434.90604	423.33599	-218.99433	453.92498	647.89253	-113.89974	480.77126	638.08689	-203.32430	447.39586	555.63316	-190.50699	177.65427	354.69833	-163.95649	178.37772	415.90919	-113.39407	166.86749	345.51666	-116.23043	177.28628	660.94566	-57.12376	185.12529	608.69904	-134.30547	180.90157	589.95331	-988.71574	1040.64705	471.80080	-982.44316	1046.39732	631.56857	-1138.98125	1030.49110	650.26878	-1111.46049	1037.08206	467.66415	-1070.60425	1373.36731	567.85522	-1207.23984	1409.92340	557.34394	-1005.87654	1580.08347	572.85431	-1151.55167	1553.40912	660.81429	-1155.72571	1553.65356	497.91473	-1152.59087	1357.16827	740.26367	-1102.88689	1065.66849	781.19164	-1164.81247	1052.76924	765.24857	-1104.81827	1054.97208	723.48473	-1049.06288	823.01422	799.61594	-1009.10873	840.00633	784.90181	-1023.95088	838.27126	746.25610	-1094.91539	1365.12421	389.21394	-1115.25124	1047.92999	378.09402	-1045.25375	1061.50856	387.07157	-1079.04770	1055.91835	344.79919	-997.20665	840.67482	384.35360	-1013.95874	836.60873	344.67735	-970.49286	850.43602	339.82258	-1071.43349	875.18898	732.64046	-1032.35329	889.01466	395.82035	-1020.05966	453.26237	641.60980	-1127.97226	485.57880	684.96269	-1107.09251	486.20323	567.24709	-1001.92184	465.46875	512.93270	-1085.12512	478.40324	416.90845	-1108.20450	478.24795	541.03127	-1097.03712	164.94198	662.71591	-1130.36407	162.54648	596.82827	-1178.24760	154.64589	665.73013	-1063.97369	163.83253	458.79829	-1124.87030	168.11243	422.87514	-1123.66035	172.60204	511.78234 
178	11.300	-205.07416	1079.87091	583.24493	-253.33599	1081.06186	380.85613	-81.64664	1108.01308	302.92896	-18.87272	1100.16388	539.59267	-237.48476	1425.02838	441.61362	-135.01781	1509.84344	428.92788	-362.89265	1607.33643	401.64291	-217.39927	1614.38858	316.94857	-207.40335	1642.95822	462.02217	-183.08500	1409.46091	234.03605	-123.09886	1093.51128	154.28792	-108.87385	1074.03297	211.29118	-195.32591	1101.64024	177.84906	-211.36190	864.48097	126.72569	-250.95566	876.73943	145.82384	-238.59413	870.81383	187.20198	-133.41989	1456.85120	623.71132	-78.87577	1141.21979	653.10677	-138.41913	1168.96385	714.87854	-69.20663	1165.85503	719.63539	-233.17713	926.76949	719.82796	-218.90905	920.25208	764.63425	-174.89855	908.58429	752.98241	-136.16055	921.30424	262.29628	-117.26058	895.55428	630.38498	-225.31128	422.56489	354.74586	-157.42518	444.01272	298.25062	-157.09213	434.81026	424.26434	-212.48373	452.72724	647.13081	-107.17828	479.51962	638.12683	-195.55088	445.62096	555.11246	-189.89334	177.91580	354.62395	-163.57700	178.39727	415.88894	-112.76785	167.03705	345.67364	-113.87421	175.27100	663.19885	-53.44125	182.04987	612.32502	-130.39198	178.85202	592.04243	-988.37029	1040.60799	472.04025	-982.10365	1046.57181	631.66061	-1138.34740	1030.31586	650.18906	-1111.47629	1036.95000	467.46384	-1070.95375	1373.01895	567.33765	-1207.97935	1409.84909	556.45168	-1006.52611	1579.55200	573.10207	-1152.66479	1553.27271	660.10117	-1156.02119	1553.72726	497.24911	-1153.23593	1357.16080	739.63951	-1103.27003	1065.81055	781.26450	-1165.05013	1052.79938	765.16136	-1104.99046	1054.99466	723.50723	-1049.15421	823.33641	800.35286	-1009.11385	840.27031	785.31326	-1023.75984	838.47046	746.62651	-1095.40146	1364.79385	388.09929	-1114.96590	1047.38548	377.77813	-1044.98329	1061.04630	386.68861	-1078.91457	1055.30899	344.52694	-996.63162	840.28328	384.45301	-1013.28842	836.14746	344.64005	-969.82574	850.00267	339.82914	-1070.94421	875.26817	732.94861	-1031.69907	888.87032	396.03855	-1019.92325	453.22941	642.09686	-1127.71400	485.69160	685.23979	-1106.85898	486.25690	567.48974	-1001.57089	465.35477	513.28213	-1084.57161	478.36266	417.11552	-1107.76840	478.24913	541.25015	-1097.13615	165.03569	663.08701	-1130.33295	162.61454	597.09637	-1178.25630	154.74213	665.94025	-1063.82835	163.77350	458.86097	-1124.71466	168.15437	422.90340	-1123.53920	172.59970	511.82751 
179	11.317	-205.62374	1079.87366	585.66753	-253.96507	1081.35605	383.42037	-81.85480	1108.47290	306.18389	-19.07925	1100.22072	542.73365	-236.34914	1426.17950	446.45992	-133.40411	1509.85870	432.07909	-360.19066	1610.64804	412.66125	-218.71239	1615.08179	321.25603	-201.23108	1643.65021	465.69206	-182.53338	1410.85190	237.41022	-122.21537	1095.01625	156.64541	-107.62747	1075.51369	213.46130	-194.43537	1102.91710	180.42849	-210.14643	865.82588	129.21675	-250.01776	878.20358	147.66810	-237.44644	872.27173	189.58384	-132.27519	1456.41968	627.33192	-76.17733	1140.92407	653.85941	-135.25418	1167.74452	715.72273	-66.47302	1164.88182	720.65514	-230.68937	925.89699	717.49207	-216.74530	918.63800	762.16049	-172.57740	907.15996	750.68336	-135.50758	921.94069	264.81846	-116.31083	895.13275	632.73540	-224.63024	422.84836	355.27241	-156.57082	444.42848	299.16983	-157.43014	434.91547	425.57270	-205.84011	451.49445	645.59578	-100.18822	477.74712	637.69722	-187.82843	443.83373	553.93932	-189.48448	178.13663	354.54964	-163.40939	178.40937	415.91690	-112.31112	167.16049	345.93616	-111.10547	173.15659	663.67538	-50.08892	178.65507	614.11079	-126.73900	176.70677	592.39429	-988.18039	1040.60440	471.87138	-981.87630	1046.72485	631.73889	-1138.15292	1030.21072	650.35629	-1111.51756	1036.59142	467.52037	-1070.91110	1372.72125	566.82762	-1208.48450	1409.51370	555.48809	-1007.09824	1579.23859	573.26927	-1153.75999	1552.89764	659.37935	-1156.13342	1553.65448	496.53702	-1153.61794	1357.29279	738.93417	-1103.43750	1066.01944	781.27548	-1165.16418	1052.96265	765.08202	-1105.09689	1055.10193	723.45398	-1049.22165	823.59528	800.79300	-1009.18159	840.49805	785.64690	-1024.03725	838.53256	747.15965	-1095.35133	1364.42291	387.62192	-1114.70840	1046.93871	377.43431	-1044.71481	1060.65880	386.38817	-1078.61221	1054.86229	344.18972	-996.17195	839.91081	384.57466	-1012.76878	835.81528	344.83055	-969.35204	849.62303	339.98840	-1070.40382	875.36613	733.25150	-1031.29799	888.80165	396.23581	-1019.74037	453.17642	642.69302	-1127.49672	485.77553	685.53658	-1106.69632	486.35754	567.89284	-1001.24504	465.31715	513.47404	-1084.16908	478.35732	417.18601	-1107.27982	478.19431	541.29688	-1097.04506	165.17012	663.05351	-1130.29198	162.67900	597.36450	-1178.50784	154.87885	666.27419	-1063.78883	163.70314	458.92174	-1124.63181	168.13633	422.97150	-1123.47488	172.57450	511.89148 
